{"title":"Bastille Day 2016 Movies HDRip XviD ESubs New Source +Sample ☻rD","uid":15572989,"size":740262812,"categoryP":"video","categoryS":"movies","magnet":"?xt=urn:btih:f01f2f935b025125d3437a34367860c3426dac4a&amp;dn=Bastille+Day+2016+Movies+HDRip+XviD+ESubs+New+Source+%2BSample+%E2%98%BBrD&amp;tr=udp%3A%2F%2Ftracker.leechers-paradise.org%3A6969&amp;tr=udp%3A%2F%2Fzer0day.ch%3A1337&amp;tr=udp%3A%2F%2Fopen.demonii.com%3A1337&amp;tr=udp%3A%2F%2Ftracker.coppersurfer.tk%3A6969&amp;tr=udp%3A%2F%2Fexodus.desync.com%3A6969","seeders":0,"leechers":1,"uploader":"basicssom","files":2,"time":1471284425,"description":"----------------------------------------------------------------\r\nBastille Day 2016 English Movies HDRip XviD ESubs AAC New Source with Sample ☻rDX☻\r\n\r\nSCREEN SHOTS &amp; POSTER:\r\n  \nhttp://postimage.co.nr/2016/8/stock/index.htm  \nhttp://postimage.co.nr/2016/8/stock/1.html  \nhttp://postimage.co.nr/2016/8/stock/2.html  \nhttp://postimage.co.nr/2016/8/stock/3.html  \nhttp://postimage.co.nr/2016/8/stock/4.html  \nhttp://postimage.co.nr/2016/8/stock/5.html  \nhttp://postimage.co.nr/2016/8/stock/6.html  \nhttp://postimage.co.nr/2016/8/stock/7.html  \nhttp://postimage.co.nr/2016/8/stock/8.html  \nhttp://postimage.co.nr/2016/8/stock/9.html  \nhttp://postimage.co.nr/2016/8/stock/10.html\r\n\r\nFormat                                   : Matroska\r\nFormat version                           : Version 4 / Version 2\r\nFile size                                : 694 MiB\r\nDuration                                 : 1 h 31 min\r\nOverall bit rate                         : 1 055 kb/s\r\nMovie name                               : Bastille Day 2016 English Movies HDRip XviD AAC New Source ☻rDX☻\r\n\r\nVideo\r\nID                                       : 1\r\nFormat                                   : MPEG-4 Visual\r\nFormat profile                           : Advanced   \r\nFormat settings, BVOP                    : 2\r\nFormat settings, QPel                    : No\r\nFormat settings, GMC                     : No warppoints\r\nFormat settings, Matrix                  : Default (H.263)\r\nMuxing mode                              : Packed bitstream\r\nCodec ID                                 : V_MS/VFW/FOURCC / XVID\r\nCodec ID/Hint                            : XviD\r\nDuration                                 : 1 h 31 min\r\nBit rate                                 : 906 kb/s\r\nWidth                                    : 640 pixels\r\nHeight                                   : 272 pixels\r\nDisplay aspect ratio                     : 2.35:1\r\nFrame rate mode                          : Constant\r\nFrame rate                               : 23.976 (24000/1001) FPS\r\nColor space                              : YUV\r\nChroma subsampling                       : 4:2:0\r\nBit depth                                : 8 bits\r\nScan type                                : Progressive\r\nCompression mode                         : Lossy\r\nBits/(Pixel*Frame)                       : 0.217\r\nStream size                              : 596 MiB (86%)\r\nTitle                                    : ☻rDX☻\r\nWriting library                          : XviD 64\r\nDefault                                  : Yes\r\nForced                                   : No\r\n\r\nAudio\r\nID                                       : 2\r\nFormat                                   : MPEG Audio\r\nFormat version                           : Version 1\r\nFormat profile                           : Layer 3\r\nMode                                     : Joint stereo\r\nMode extension                           : MS Stereo\r\nCodec ID                                 : A_MPEG/L3\r\nCodec ID/Hint                            : MP3\r\nDuration                                 : 1 h 31 min\r\nBit rate mode                            : Constant\r\nBit rate                                 : 128 kb/s\r\nChannel(s)                               : 2 channels\r\nSampling rate                            : 48.0 kHz\r\nCompression mode                         : Lossy\r\nStream size                              : 84.1 MiB (12%)\r\nTitle                                    : ☻rDX☻\r\nWriting library                          : LAME3.99r\r\nEncoding settings                        : -m j -V 4 -q 3 -lowpass 17 -b 128\r\nDefault                                  : Yes\r\nForced                                   : No\r\n\r\nIMDB \nhttp://www.imdb.com/title/tt2368619/","torrent":{"xt":"urn:btih:f01f2f935b025125d3437a34367860c3426dac4a","amp;dn":"Bastille+Day+2016+Movies+HDRip+XviD+ESubs+New+Source+%2BSample+%E2%98%BBrD","amp;tr":["udp%3A%2F%2Ftracker.leechers-paradise.org%3A6969","udp%3A%2F%2Fzer0day.ch%3A1337","udp%3A%2F%2Fopen.demonii.com%3A1337","udp%3A%2F%2Ftracker.coppersurfer.tk%3A6969","udp%3A%2F%2Fexodus.desync.com%3A6969"],"infoHash":"f01f2f935b025125d3437a34367860c3426dac4a","infoHashBuffer":{"type":"Buffer","data":[240,31,47,147,91,2,81,37,211,67,122,52,54,120,96,195,66,109,172,74]},"announce":[],"urlList":[]}}